<mxfile host="app.diagrams.net" modified="2022-04-18T08:46:28.079Z" agent="5.0 (Windows NT 10.0; Win64; x64) AppleWebKit/537.36 (KHTML, like Gecko) Chrome/100.0.4896.75 Safari/537.36" etag="utztQk0hn3Wt4MvbEndP" version="17.4.4" type="github">
  <diagram id="C5RBs43oDa-KdzZeNtuy" name="Page-1">
    <mxGraphModel dx="305" dy="185" grid="1" gridSize="5" guides="1" tooltips="1" connect="1" arrows="1" fold="1" page="1" pageScale="1" pageWidth="1169" pageHeight="827" background="#D5E8D4" math="0" shadow="1">
      <root>
        <object label="" 自定义属性="背景颜色 D5E8D4" 网格="5pt" id="WIyWlLk6GJQsqaUBKTNV-0">
          <mxCell />
        </object>
        <mxCell id="WIyWlLk6GJQsqaUBKTNV-1" parent="WIyWlLk6GJQsqaUBKTNV-0" />
        <mxCell id="sO423sP-Redq15ubjrCu-73" value="" style="rounded=1;whiteSpace=wrap;html=1;sketch=1;fontSize=10;strokeColor=#6c8ebf;fillColor=#dae8fc;" vertex="1" parent="WIyWlLk6GJQsqaUBKTNV-1">
          <mxGeometry x="380" y="239.5" width="140" height="60.5" as="geometry" />
        </mxCell>
        <mxCell id="sO423sP-Redq15ubjrCu-54" value="" style="aspect=fixed;perimeter=ellipsePerimeter;html=1;align=center;shadow=0;dashed=0;spacingTop=3;image;image=img/lib/active_directory/databases.svg;rounded=1;sketch=1;" vertex="1" parent="WIyWlLk6GJQsqaUBKTNV-1">
          <mxGeometry x="390" y="250" width="40.82" height="40" as="geometry" />
        </mxCell>
        <mxCell id="sO423sP-Redq15ubjrCu-64" value="" style="sketch=0;html=1;aspect=fixed;strokeColor=none;shadow=0;align=center;verticalAlign=top;fillColor=#3B8DF1;shape=mxgraph.gcp2.cloud_computer;rounded=1;" vertex="1" parent="WIyWlLk6GJQsqaUBKTNV-1">
          <mxGeometry x="432.96000000000004" y="345" width="34.09" height="30" as="geometry" />
        </mxCell>
        <mxCell id="sO423sP-Redq15ubjrCu-68" value="&lt;font style=&quot;font-size: 10px&quot; color=&quot;#67ab9f&quot;&gt;Lucene&lt;/font&gt;" style="text;html=1;resizable=0;autosize=1;align=center;verticalAlign=middle;points=[];fillColor=none;strokeColor=none;rounded=0;sketch=1;" vertex="1" parent="WIyWlLk6GJQsqaUBKTNV-1">
          <mxGeometry x="387.71" y="262.25" width="50" height="20" as="geometry" />
        </mxCell>
        <mxCell id="sO423sP-Redq15ubjrCu-69" value="" style="aspect=fixed;perimeter=ellipsePerimeter;html=1;align=center;shadow=0;dashed=0;spacingTop=3;image;image=img/lib/active_directory/databases.svg;rounded=1;sketch=1;" vertex="1" parent="WIyWlLk6GJQsqaUBKTNV-1">
          <mxGeometry x="465" y="250" width="40.82" height="40" as="geometry" />
        </mxCell>
        <mxCell id="sO423sP-Redq15ubjrCu-70" value="&lt;font style=&quot;font-size: 10px&quot; color=&quot;#67ab9f&quot;&gt;Lucene&lt;/font&gt;" style="text;html=1;resizable=0;autosize=1;align=center;verticalAlign=middle;points=[];fillColor=none;strokeColor=none;rounded=0;sketch=1;" vertex="1" parent="WIyWlLk6GJQsqaUBKTNV-1">
          <mxGeometry x="462.7" y="262.25" width="50" height="20" as="geometry" />
        </mxCell>
        <mxCell id="sO423sP-Redq15ubjrCu-75" value="" style="endArrow=classic;html=1;rounded=0;sketch=1;fontSize=10;fontColor=#67AB9F;entryX=0.5;entryY=1;entryDx=0;entryDy=0;exitX=0.517;exitY=0;exitDx=0;exitDy=0;exitPerimeter=0;" edge="1" parent="WIyWlLk6GJQsqaUBKTNV-1" source="sO423sP-Redq15ubjrCu-64" target="sO423sP-Redq15ubjrCu-73">
          <mxGeometry width="50" height="50" relative="1" as="geometry">
            <mxPoint x="365" y="380" as="sourcePoint" />
            <mxPoint x="415" y="330" as="targetPoint" />
          </mxGeometry>
        </mxCell>
        <mxCell id="sO423sP-Redq15ubjrCu-76" value="1" style="text;html=1;resizable=0;autosize=1;align=center;verticalAlign=middle;points=[];fillColor=none;strokeColor=none;rounded=0;sketch=1;fontSize=10;fontColor=#67AB9F;" vertex="1" parent="WIyWlLk6GJQsqaUBKTNV-1">
          <mxGeometry x="400.40999999999997" y="275" width="20" height="20" as="geometry" />
        </mxCell>
        <mxCell id="sO423sP-Redq15ubjrCu-77" value="2" style="text;html=1;resizable=0;autosize=1;align=center;verticalAlign=middle;points=[];fillColor=none;strokeColor=none;rounded=0;sketch=1;fontSize=10;fontColor=#67AB9F;" vertex="1" parent="WIyWlLk6GJQsqaUBKTNV-1">
          <mxGeometry x="475.40999999999997" y="275" width="20" height="20" as="geometry" />
        </mxCell>
      </root>
    </mxGraphModel>
  </diagram>
</mxfile>
